<svg xmlns="http://www.w3.org/2000/svg" width="48" height="48"><circle cx="37.045" cy="28.409" r="12.5" fill="#ffa40b" fill-rule="evenodd" transform="matrix(1.92 0 0 1.92 -47.127 -30.545)"/><path fill="#ff7712" style="line-height:normal;text-indent:0;text-align:start;text-decoration-line:none;text-decoration-style:solid;text-decoration-color:#000;text-transform:none;block-progression:tb;isolation:auto;mix-blend-mode:normal" d="M26.633 47.846a24 24 0 0 0 2.135-.325 24 24 0 0 0 2.324-.593 24 24 0 0 0 2.254-.823 24 24 0 0 0 2.16-1.042 24 24 0 0 0 2.045-1.254 24 24 0 0 0 1.91-1.454 24 24 0 0 0 1.756-1.634 24 24 0 0 0 1.584-1.803 24 24 0 0 0 1.394-1.951 24 24 0 0 0 1.194-2.08 24 24 0 0 0 .98-2.19 24 24 0 0 0 .756-2.277 24 24 0 0 0 .436-1.94L33.195 14.115c-.036-.036-.067-.053-.1-.074-.012-.008-.026-.023-.038-.03-.05-.026-.099-.042-.145-.06-.1-.039-.2-.067-.308-.094-.049-.012-.108-.02-.159-.03L30.23 11.61l-.04-.04a.746.746 0 0 0-.15-.114c-.187-.11-.292-.096-.398-.098-.107 0-.211.01-.323.018-.223.024-.472.068-.718.111-.247.043-.489.087-.672.112l-.04.004-1.19-1.19-.065-.066a2.2 2.2 0 0 0-.17-.155c-.083-.067-.151-.147-.365-.185-.214-.038-.306.01-.407.045a2.54 2.54 0 0 0-.296.129c-.202.1-.422.226-.64.351-.216.126-.429.251-.593.338-.068.036-.119.057-.162.076-.043-.019-.093-.04-.162-.076-.164-.087-.377-.212-.594-.338a11.702 11.702 0 0 0-.639-.351c-.1-.05-.196-.094-.296-.13-.05-.016-.098-.04-.16-.052v.01a.739.739 0 0 0-.247 0c-.213.038-.282.116-.365.183a2.496 2.496 0 0 0-.236.223c-.155.163-.318.358-.479.55-.16.194-.32.384-.445.522a2.499 2.499 0 0 1-.127.131c-.047 0-.102-.012-.178-.02-.183-.024-.425-.067-.672-.11-.246-.044-.495-.088-.718-.112a2.534 2.534 0 0 0-.323-.018c-.106 0-.211-.011-.398.098-.187.11-.225.205-.28.297-.054.092-.099.186-.144.289-.09.207-.18.447-.266.684-.086.237-.17.47-.24.644-.03.073-.055.127-.076.17a2.98 2.98 0 0 1-.176.045c-.18.04-.422.083-.668.127-.246.044-.497.09-.715.144-.108.027-.209.055-.308.094-.1.04-.202.061-.34.227s-.14.27-.16.375c-.02.104-.032.207-.04.32-.014.225-.014.482-.015.734 0 .253 0 .503-.008.69-.003.08-.01.138-.015.185-.038.028-.084.063-.15.106-.157.1-.372.225-.589.351-.216.127-.434.257-.62.383a2.498 2.498 0 0 0-.258.196c-.08.07-.168.126-.24.328-.073.202-.042.3-.026.406.016.105.043.206.074.314.062.217.148.458.233.696.084.237.168.472.224.65.024.076.04.133.051.18-.026.04-.06.09-.11.154-.113.148-.27.337-.431.531-.16.194-.321.392-.453.575a2.49 2.49 0 0 0-.176.271c-.051.094-.115.177-.115.39 0 .215.064.298.115.391.051.094.11.18.176.272.132.182.293.38.453.574.16.194.318.383.432.531.048.064.083.115.109.155a2.564 2.564 0 0 1-.05.18c-.057.178-.14.412-.225.65-.085.237-.17.476-.233.693a2.56 2.56 0 0 0-.074.316c-.016.106-.047.205.025.407.043.118.09.182.139.232.003.003.005.01.008.014l1.73 1.73c0 .092.004.166.004.262 0 .252 0 .507.016.732.007.113.018.218.039.323.02.104.022.209.16.375.02.023.039.044.057.062l1.93 1.93-2.19 3.728a.537.537 0 0 0 .603.791l11.485 11.485z" color="#000" font-family="sans-serif" font-weight="400"/><path fill="#fff" style="line-height:normal;text-indent:0;text-align:start;text-decoration-line:none;text-decoration-style:solid;text-decoration-color:#000;text-transform:none;block-progression:tb;isolation:auto;mix-blend-mode:normal" d="M14.148 2.006a.657.657 0 0 0-.246.004v.004c-.213.038-.282.116-.365.183a2.496 2.496 0 0 0-.236.223c-.155.163-.318.358-.479.55-.16.194-.32.384-.445.522a2.499 2.499 0 0 1-.127.131c-.047 0-.102-.011-.178-.02-.183-.024-.425-.067-.672-.11-.246-.044-.495-.088-.718-.112a2.534 2.534 0 0 0-.323-.018c-.106 0-.211-.011-.398.098-.187.109-.225.205-.28.297-.054.092-.099.185-.144.289-.09.207-.18.446-.266.683-.086.237-.17.472-.24.645-.03.073-.055.127-.076.17a2.98 2.98 0 0 1-.176.045c-.18.04-.422.083-.668.127-.246.044-.497.09-.715.144-.108.027-.209.055-.308.094-.1.04-.202.061-.34.227-.138.165-.14.27-.16.375-.02.104-.032.207-.04.32-.014.225-.014.482-.015.734 0 .253 0 .502-.008.69-.003.08-.01.138-.015.185-.038.028-.084.063-.15.106-.157.1-.372.224-.589.351-.216.127-.434.257-.62.383a2.498 2.498 0 0 0-.258.195c-.08.071-.168.127-.24.329-.073.201-.042.3-.026.406.016.105.043.206.074.314.062.217.148.458.233.696.084.237.168.472.224.65.024.076.04.133.051.18-.026.04-.06.09-.11.154-.113.148-.27.337-.431.531-.16.194-.321.392-.453.574a2.49 2.49 0 0 0-.176.272c-.051.094-.115.176-.115.39 0 .215.064.298.115.391.051.094.11.18.176.272.132.182.293.38.453.574.16.194.318.383.432.531.048.064.083.114.109.154a2.563 2.563 0 0 1-.05.18c-.057.179-.14.413-.225.65-.085.238-.17.477-.233.694a2.56 2.56 0 0 0-.074.316c-.016.106-.047.205.025.407.073.201.16.257.24.328.08.07.165.132.258.195.187.126.405.256.621.383.217.127.432.25.588.35.067.041.113.076.15.105.006.048.013.107.016.187.008.188.008.437.008.69 0 .252 0 .507.016.732.007.113.018.218.039.323.02.104.022.209.16.375.138.165.24.187.34.226.1.04.2.069.308.096.218.054.47.1.715.144.246.044.487.087.668.127.076.017.131.032.176.045.021.043.046.097.076.17.046.111.101.268.155.414l-2.641 4.498a.537.537 0 0 0 .603.791l2.416-.648.649 2.418a.537.537 0 0 0 .982.129l2.492-4.315c.053.03.116.057.215.074.214.038.306-.011.407-.046.1-.035.196-.077.296-.127.202-.1.422-.226.64-.352.216-.126.429-.251.593-.338.069-.036.119-.06.162-.08.043.02.094.044.162.08.164.087.377.212.594.338.217.126.437.252.639.352.1.05.195.092.296.127.101.035.193.084.407.046a.637.637 0 0 0 .213-.074l2.49 4.315a.537.537 0 0 0 .982-.13l.649-2.415 2.414.648a.537.537 0 0 0 .601-.79l-2.634-4.493c.054-.15.11-.309.156-.422.03-.073.055-.127.076-.17.045-.013.1-.028.176-.045.18-.04.422-.082.668-.127.246-.044.497-.09.715-.144a2.44 2.44 0 0 0 .308-.096c.1-.039.202-.061.34-.226.138-.166.14-.27.16-.375.02-.105.032-.21.04-.323.014-.225.014-.48.015-.732 0-.253 0-.502.008-.69.003-.08.01-.14.015-.187.038-.028.084-.063.15-.106.157-.1.37-.222.587-.35.216-.126.435-.256.62-.382.094-.063.179-.125.258-.195.08-.071.168-.127.24-.328.073-.202.042-.301.026-.407a2.56 2.56 0 0 0-.074-.316 11.847 11.847 0 0 0-.233-.693 20.18 20.18 0 0 1-.224-.65 2.605 2.605 0 0 1-.05-.18c.025-.04.06-.092.108-.155.114-.148.272-.337.432-.531.16-.194.323-.392.455-.574.066-.091.125-.178.176-.272.051-.094.115-.176.115-.39 0-.215-.064-.297-.115-.391a2.488 2.488 0 0 0-.176-.272c-.132-.182-.295-.38-.455-.574-.16-.194-.318-.385-.432-.533a2.707 2.707 0 0 1-.109-.152c.011-.047.027-.104.05-.18.057-.178.14-.413.225-.65.085-.238.17-.479.233-.696.031-.108.058-.209.074-.314.016-.106.047-.205-.025-.406-.073-.202-.16-.258-.24-.329a2.457 2.457 0 0 0-.258-.195 11.701 11.701 0 0 0-.621-.383c-.217-.127-.43-.251-.586-.351a2.503 2.503 0 0 1-.15-.106c-.006-.048-.013-.106-.016-.185-.008-.188-.008-.437-.008-.69 0-.252 0-.509-.016-.734a2.517 2.517 0 0 0-.039-.32c-.02-.105-.022-.21-.16-.375-.138-.166-.24-.188-.34-.227-.1-.039-.2-.067-.308-.094a11.81 11.81 0 0 0-.715-.144c-.246-.044-.487-.087-.668-.127a2.978 2.978 0 0 1-.176-.045 2.664 2.664 0 0 1-.076-.17c-.07-.173-.154-.408-.24-.645a11.882 11.882 0 0 0-.266-.683 2.518 2.518 0 0 0-.145-.29c-.054-.09-.093-.187-.279-.296-.187-.11-.292-.096-.398-.098-.107 0-.211.01-.323.018-.223.024-.472.068-.718.111-.247.043-.489.087-.672.112-.076.01-.131.015-.178.019a2.672 2.672 0 0 1-.127-.13 20.14 20.14 0 0 1-.445-.522c-.161-.193-.326-.39-.48-.553a2.424 2.424 0 0 0-.235-.22c-.083-.068-.151-.148-.365-.186-.214-.038-.306.01-.407.045a2.54 2.54 0 0 0-.296.129c-.202.1-.422.226-.64.351-.216.126-.429.251-.593.338-.068.036-.119.057-.162.076-.043-.019-.093-.04-.162-.076-.164-.087-.377-.212-.594-.338a11.702 11.702 0 0 0-.639-.351c-.1-.05-.196-.094-.296-.13-.05-.017-.098-.038-.16-.05zm-.062 1.047c.027.012.043.015.076.031.157.078.366.196.58.32.214.124.432.252.627.356.098.052.19.099.281.136.093.038.167.083.35.083.183 0 .255-.045.348-.083a3.25 3.25 0 0 0 .28-.136c.196-.104.416-.232.63-.356.214-.124.423-.242.58-.32.033-.017.049-.02.076-.031.022.02.035.03.06.056.122.128.28.314.438.504.16.19.32.386.469.551.074.082.143.155.217.223.073.068.127.134.298.197.172.063.256.047.356.043.1 0 .201-.014.31-.03.22-.03.469-.074.711-.117.243-.043.481-.082.655-.101.037 0 .052 0 .082-.01l.037.078c.07.162.157.391.242.625.085.234.17.474.254.68.042.103.083.196.129.285.046.09.074.17.213.287.139.118.223.132.318.162.095.031.193.056.3.08.217.048.465.091.708.135.243.044.48.087.65.13.038.01.053.016.082.024.004.031.007.048.01.088.012.177.013.421.014.67 0 .25 0 .504.01.727.004.111.01.213.023.312.013.1.013.184.104.342.09.158.163.2.242.262.078.062.162.12.256.18.186.119.406.245.619.37.213.126.42.25.566.348.033.022.045.034.07.053-.007.031-.01.049-.021.088-.049.17-.13.4-.213.635-.084.234-.17.471-.236.683a3.374 3.374 0 0 0-.084.303c-.021.098-.05.177-.02.355.031.179.086.244.139.329.053.085.114.17.182.257.134.177.297.37.455.561.158.191.312.38.416.523.024.033.033.05.05.077-.017.027-.026.043-.05.076-.104.143-.258.33-.416.521-.158.191-.32.386-.455.563-.068.088-.129.169-.182.254-.053.085-.108.153-.139.332-.03.178-.001.257.02.355.02.098.05.195.084.3.067.213.152.452.236.686.084.234.164.465.213.635.011.04.014.057.021.088-.025.02-.037.03-.07.053a11.16 11.16 0 0 1-.566.347c-.213.126-.433.252-.62.372-.093.06-.177.116-.255.177-.079.062-.152.105-.242.262-.09.158-.09.24-.104.34a3.393 3.393 0 0 0-.023.314c-.01.223-.01.476-.01.725 0 .25-.002.493-.014.67-.003.04-.006.058-.01.09-.03.01-.044.013-.082.023-.17.042-.407.087-.65.131-.243.044-.491.087-.707.135a3.22 3.22 0 0 0-.3.078c-.096.03-.18.046-.32.164-.138.118-.166.198-.212.287a3.367 3.367 0 0 0-.129.285c-.084.206-.169.446-.254.68-.085.234-.171.46-.242.623-.016.036-.025.052-.04.08-.028 0-.043 0-.08-.01a11.4 11.4 0 0 1-.654-.101c-.242-.043-.492-.088-.71-.117a3.253 3.253 0 0 0-.311-.032c-.1 0-.184-.018-.356.045-.171.063-.225.128-.298.195a3.423 3.423 0 0 0-.217.225c-.149.165-.31.36-.469.55-.159.191-.316.375-.437.503-.026.027-.04.037-.06.058-.028-.012-.044-.017-.077-.033a11.614 11.614 0 0 1-.58-.322c-.214-.124-.434-.252-.63-.356a3.075 3.075 0 0 0-.28-.134c-.093-.038-.165-.082-.348-.082-.183 0-.257.044-.35.082a3.272 3.272 0 0 0-.28.136c-.196.104-.414.232-.628.356-.214.124-.423.242-.58.32-.033.016-.049.021-.076.033-.022-.02-.035-.03-.06-.058a11.405 11.405 0 0 1-.438-.502c-.16-.19-.32-.386-.469-.55a3.398 3.398 0 0 0-.217-.226c-.073-.067-.127-.132-.298-.195-.172-.063-.256-.049-.356-.045-.1 0-.201.017-.31.032-.22.03-.469.074-.711.117-.243.043-.481.083-.655.101-.036 0-.05 0-.08.01-.014-.028-.023-.043-.039-.08-.07-.162-.157-.39-.242-.623-.085-.234-.17-.474-.254-.68a3.325 3.325 0 0 0-.129-.285c-.046-.089-.074-.17-.213-.287-.139-.118-.223-.133-.318-.164a3.223 3.223 0 0 0-.3-.078c-.217-.048-.465-.091-.708-.135-.243-.044-.48-.089-.65-.13a1.951 1.951 0 0 1-.082-.024c-.004-.032-.007-.05-.01-.09-.012-.177-.013-.42-.014-.67 0-.25 0-.502-.01-.725a3.396 3.396 0 0 0-.023-.314c-.013-.1-.013-.182-.104-.34-.09-.158-.163-.2-.242-.262a3.218 3.218 0 0 0-.258-.177c-.186-.12-.405-.246-.619-.371-.213-.126-.42-.25-.566-.348-.033-.022-.045-.034-.07-.053.007-.03.01-.049.021-.088.049-.17.13-.4.213-.635.084-.234.17-.473.236-.685a3.33 3.33 0 0 0 .084-.3c.021-.099.05-.178.02-.356-.031-.178-.086-.248-.139-.332a3.278 3.278 0 0 0-.181-.254c-.135-.177-.298-.371-.456-.563-.157-.191-.31-.378-.414-.521-.024-.033-.033-.05-.05-.076.017-.027.026-.044.05-.077.104-.143.257-.332.414-.523.158-.191.32-.386.456-.563.067-.088.128-.17.181-.255.053-.085.108-.15.139-.329.031-.178.001-.257-.02-.355a3.345 3.345 0 0 0-.084-.303c-.067-.212-.152-.45-.236-.683a11.6 11.6 0 0 1-.213-.635c-.011-.04-.014-.057-.021-.088.025-.019.037-.03.07-.053.145-.099.353-.222.566-.347.214-.126.433-.252.62-.371.093-.06.179-.119.257-.18.079-.062.152-.104.242-.262.09-.158.09-.243.104-.342.013-.099.019-.2.023-.312.01-.223.01-.478.01-.727s.002-.493.014-.67c.003-.04.006-.056.01-.088.03-.01.044-.016.082-.025.17-.042.407-.085.65-.129.243-.044.491-.087.707-.135a3.21 3.21 0 0 0 .3-.08c.096-.03.18-.044.32-.162.138-.118.166-.198.212-.287a3.37 3.37 0 0 0 .129-.285c.084-.206.169-.446.254-.68.085-.234.171-.463.242-.625l.037-.078c.03 0 .045 0 .082.01.174.019.412.059.655.101.242.043.492.088.71.118.11.015.211.027.311.03.1 0 .184.019.356-.044.171-.063.225-.128.298-.195a3.42 3.42 0 0 0 .217-.225c.149-.165.31-.36.469-.55.159-.19.316-.377.437-.505.026-.027.04-.035.06-.056zM16 5.52c-4.689 0-8.5 3.812-8.5 8.5 0 4.69 3.811 8.5 8.5 8.5s8.5-3.81 8.5-8.5c0-4.688-3.811-8.5-8.5-8.5zm0 .944a7.549 7.549 0 0 1 7.555 7.556A7.547 7.547 0 0 1 16 21.576a7.547 7.547 0 0 1-7.555-7.555A7.549 7.549 0 0 1 16 6.465Zm-.023 2.77c-.301 0-.432.155-.532.263a2.12 2.12 0 0 0-.254.356c-.155.258-.307.569-.455.884-.148.316-.292.634-.412.875-.06.12-.114.224-.154.29-.008.013-.012.017-.02.027l-.029.01c-.075.018-.187.039-.32.06-.267.043-.613.086-.96.133-.345.047-.69.1-.984.172a2.126 2.126 0 0 0-.412.136c-.133.063-.319.14-.41.426-.091.286.014.458.086.586.072.129.16.236.26.35.198.228.448.469.703.707.255.238.514.473.707.662.096.094.177.176.227.234.008.01.009.015.015.024 0 .012.003.017.002.033a3.997 3.997 0 0 1-.039.326c-.042.266-.108.606-.17.95-.062.342-.12.685-.142.986-.012.15-.015.289.004.435.018.146.035.347.279.522.244.175.439.126.584.097.145-.029.275-.078.414-.136.278-.118.585-.281.89-.45.306-.168.609-.342.848-.466.12-.062.224-.112.295-.141.015-.006.02-.006.033-.01.01.003.016.002.028.008.071.029.176.078.297.139.24.121.543.29.851.455.308.164.617.327.897.441.14.057.27.104.416.131.145.027.34.073.582-.105.242-.178.258-.38.275-.526a2.083 2.083 0 0 0-.002-.433c-.026-.301-.09-.644-.156-.987-.066-.342-.135-.681-.18-.947a4.136 4.136 0 0 1-.045-.324v-.032c.007-.01.008-.014.018-.025.049-.059.127-.145.222-.24.19-.19.448-.429.7-.67.252-.241.5-.483.695-.713.098-.115.183-.226.254-.355.07-.13.175-.3.08-.584-.095-.285-.282-.363-.416-.424a2.108 2.108 0 0 0-.416-.133 10.102 10.102 0 0 0-.985-.156c-.346-.043-.694-.082-.96-.121a4.287 4.287 0 0 1-.323-.057c-.013-.003-.016-.006-.027-.01-.008-.01-.013-.014-.022-.027a4.184 4.184 0 0 1-.156-.285c-.123-.24-.272-.556-.424-.87a10.033 10.033 0 0 0-.464-.88 2.121 2.121 0 0 0-.26-.352c-.102-.107-.233-.26-.533-.258v-.002zm.007 1.26c.108.186.226.407.35.663.148.305.295.624.432.89.068.135.133.254.2.362.069.108.113.2.276.317.164.117.265.128.389.158s.26.052.408.074c.298.044.648.083.984.125.283.035.529.075.74.117-.144.16-.317.34-.523.537-.244.235-.502.473-.715.686-.106.106-.2.205-.28.303-.083.098-.159.168-.22.359-.06.191-.04.291-.029.418.01.127.03.262.055.41.05.296.123.64.187.973.054.28.092.526.117.74a10.564 10.564 0 0 1-.673-.332c-.3-.16-.607-.331-.875-.467a4.748 4.748 0 0 0-.375-.174c-.119-.048-.21-.097-.41-.095-.202 0-.291.053-.409.101-.118.05-.24.11-.373.18-.266.139-.572.313-.869.476-.25.138-.474.25-.67.34.023-.214.06-.462.11-.742.06-.333.127-.678.173-.975.024-.148.04-.283.05-.41.008-.127.027-.227-.036-.418-.063-.19-.138-.258-.22-.355a4.766 4.766 0 0 0-.288-.3c-.215-.21-.475-.445-.722-.677a10.474 10.474 0 0 1-.53-.53c.212-.045.458-.09.74-.128.336-.046.684-.087.981-.135.148-.024.283-.049.406-.08.124-.03.227-.043.389-.162.162-.119.203-.211.27-.32.066-.109.13-.23.197-.365.133-.27.278-.588.422-.895.12-.257.236-.482.341-.67zm-6.28 13.82c.046.081.093.165.257.261.187.11.292.095.398.098.107 0 .211-.01.323-.018.223-.024.472-.068.718-.111.247-.043.489-.086.672-.111.076-.01.131-.016.178-.02.034.033.074.073.127.13.125.14.284.33.445.522.027.033.053.06.08.092l-1.988 3.446-.451-1.684a.537.537 0 0 0-.658-.379l-1.67.447 1.568-2.674Zm12.589.005 1.566 2.67-1.67-.447a.537.537 0 0 0-.656.38l-.451 1.68-1.988-3.44c.028-.034.056-.063.084-.097.16-.192.32-.383.445-.521a2.54 2.54 0 0 1 .127-.13c.047 0 .102.01.178.019.183.025.425.068.672.111.246.043.495.087.718.111.112.012.216.02.323.018.106 0 .211.011.398-.098a.598.598 0 0 0 .254-.256z" color="#000" font-family="sans-serif" font-weight="400" overflow="visible" transform="translate(8 8.004)"/></svg>