<svg xmlns="http://www.w3.org/2000/svg" viewBox="0 0 512 512"><path fill="#ffe177" fill-rule="evenodd" d="m286.323 29.141 30.486 22.82c8.338 6.241 17.114 9.435 27.513 10.014l38.021 2.115c22.767 1.266 41.258 16.781 46.458 38.983l8.686 37.077c2.375 10.14 7.045 18.228 14.639 25.355l27.767 26.061c16.626 15.604 20.817 39.375 10.531 59.725l-17.179 33.985c-4.698 9.295-6.32 18.492-5.084 28.833l4.52 37.812c2.706 22.641-9.363 43.544-30.323 52.521l-35.006 14.992c-9.574 4.1-16.728 10.103-22.428 18.819l-20.843 31.87c-12.48 19.083-35.162 27.338-56.988 20.742l-36.452-11.016c-9.969-3.013-19.308-3.013-29.278 0l-36.452 11.016c-21.826 6.596-44.508-1.659-56.988-20.742l-20.843-31.87c-5.701-8.716-12.855-14.719-22.428-18.819L69.644 404.44c-20.96-8.977-33.029-29.88-30.323-52.521l4.52-37.812c1.236-10.341-.386-19.538-5.084-28.833l-17.179-33.985c-10.286-20.349-6.095-44.12 10.531-59.725l27.767-26.061c7.594-7.127 12.263-15.215 14.638-25.355l8.686-37.077c5.2-22.201 23.691-37.716 46.458-38.983l38.021-2.115c10.399-.578 19.175-3.773 27.513-10.014l30.486-22.82c18.253-13.662 42.391-13.662 60.645.002z" clip-rule="evenodd"/><path fill="#ffd064" fill-rule="evenodd" d="m286.323 29.141 30.486 22.82c8.338 6.241 17.114 9.435 27.513 10.014l38.021 2.115c22.767 1.266 41.258 16.781 46.458 38.983l8.686 37.077c2.375 10.14 7.045 18.228 14.639 25.355l27.767 26.061c16.626 15.604 20.817 39.375 10.531 59.725l-17.179 33.985c-4.698 9.295-6.32 18.492-5.084 28.833l4.52 37.812c2.706 22.641-9.363 43.544-30.323 52.521l-35.006 14.992c-9.574 4.1-16.728 10.103-22.428 18.819l-20.843 31.87c-11.537 17.641-31.791 26.027-52.028 21.983 12.82-2.61 24.353-10.248 32.028-21.983l20.843-31.87c5.7-8.716 12.854-14.72 22.428-18.819l35.006-14.992c20.961-8.977 33.029-29.88 30.323-52.521l-4.52-37.812c-1.236-10.341.386-19.538 5.084-28.833l17.179-33.985c10.286-20.349 6.095-44.12-10.531-59.725l-27.767-26.061c-7.594-7.127-12.263-15.215-14.639-25.355l-8.686-37.077c-5.2-22.201-23.691-37.716-46.458-38.983l-38.021-2.115c-10.399-.578-19.175-3.773-27.513-10.014l-30.486-22.82c-6.243-4.673-13.174-7.747-20.322-9.224 13.752-2.841 28.311.233 40.322 9.224zM246 478.654a56.175 56.175 0 0 0-4.638 1.193l-36.452 11.016c-8.404 2.54-16.934 2.875-24.96 1.241a53.397 53.397 0 0 0 4.959-1.241l36.452-11.016c8.409-2.541 16.37-2.939 24.639-1.193z" clip-rule="evenodd"/><circle cx="256" cy="256" r="155.546" fill="#ffd064" fill-rule="evenodd" clip-rule="evenodd" transform="rotate(-45.001 255.998 256.004)"/><path fill="#ffc338" fill-rule="evenodd" d="M256 100.454c3.361 0 6.693.119 10 .329C184.756 105.94 120.455 173.455 120.455 256c0 82.545 64.302 150.06 145.546 155.217-3.307.21-6.64.329-10 .329-85.906 0-155.546-69.64-155.546-155.546-.001-85.905 69.639-155.546 155.545-155.546z" clip-rule="evenodd"/><path fill="#eceff1" fill-rule="evenodd" d="m236.553 269.06 71.996-72.714c8.522-8.607 22.426-8.632 31.008-.096 8.581 8.533 8.608 22.397.095 30.989-29.195 29.465-58.193 59.126-87.523 88.456-8.575 8.575-22.483 8.574-31.058 0l-48.661-48.66c-8.575-8.575-8.575-22.483 0-31.058 8.574-8.575 22.484-8.575 31.058 0l33.085 33.083z" clip-rule="evenodd"/></svg>